HIERARCHY
ROOT pelvis
{
  OFFSET 0 100 0
  CHANNELS 6 Xposition Yposition Zposition Zrotation Xrotation Yrotation
  JOINT pelvis_right_femur
  {
    OFFSET -10.78128 -3.44521 -0.5502486
    CHANNELS 3 Zrotation Xrotation Yrotation
    JOINT right_femur_tibia
    {
      OFFSET -0.8047443 -44.0398 -0.1307829
      CHANNELS 3 Zrotation Xrotation Yrotation
      JOINT right_tibia_foot
      {
        OFFSET 3.006224 -47.83518 -5
        CHANNELS 3 Zrotation Xrotation Yrotation
        End Site
        {
          OFFSET 0 -5 15
        }
      }
    }
  }
  JOINT pelvis_left_femur
  {
    OFFSET 10.78128 -3.44521 -0.5502486
    CHANNELS 3 Zrotation Xrotation Yrotation
    JOINT left_femur_tibia
    {
      OFFSET 0.8047443 -44.0398 -0.1307829
      CHANNELS 3 Zrotation Xrotation Yrotation
      JOINT left_tibia_foot
      {
        OFFSET -4.370144 -48.10324 -4.275266
        CHANNELS 3 Zrotation Xrotation Yrotation
        End Site
        {
          OFFSET 0 -5 15
        }
      }
    }
  }
  JOINT pelvis_spine1
  {
    OFFSET 0 6.468898 -3.129235
    CHANNELS 3 Zrotation Xrotation Yrotation
    JOINT spine1
    {
      OFFSET 0 23.15396 4.99043
      CHANNELS 3 Zrotation Xrotation Yrotation
      JOINT spine2
      {
        OFFSET 0 20.79997 -5.064912
        CHANNELS 3 Zrotation Xrotation Yrotation
        JOINT neck
        {
          OFFSET 0 14.38658 9.616178
          CHANNELS 3 Zrotation Xrotation Yrotation
          End Site
          {
            OFFSET 0 20 0
          }
        }
      }
      JOINT right_manubrium
      {
        OFFSET -5.722621 16.35077 3.967754
        CHANNELS 3 Zrotation Xrotation Yrotation
        JOINT right_clavicle
        {
          OFFSET -13.16364 1.694482 -4.693211
          CHANNELS 3 Zrotation Xrotation Yrotation
          JOINT right_humerus
          {
            OFFSET -28.5034 -0.3100689 -2.792744
            CHANNELS 3 Zrotation Xrotation Yrotation
            JOINT right_radius
            {
              OFFSET -25.15693 0.02248979 -1.271978
              CHANNELS 3 Zrotation Xrotation Yrotation
              End Site
              {
                OFFSET -15 0 0
              }
            }
          }
        }
      }
      JOINT left_manubrium
      {
        OFFSET 5.722621 16.35077 3.967754
        CHANNELS 3 Zrotation Xrotation Yrotation
        JOINT left_clavicle
        {
          OFFSET 13.16364 1.694482 -4.693211
          CHANNELS 3 Zrotation Xrotation Yrotation
          JOINT left_humerus
          {
            OFFSET 29.39168 -1.063119 -2.237045
            CHANNELS 3 Zrotation Xrotation Yrotation
            JOINT left_radius
            {
              OFFSET 24.59957 -0.9528479 0.9047498
              CHANNELS 3 Zrotation Xrotation Yrotation
              End Site
              {
                OFFSET 15 -0 -0
              }
            }
          }
        }
      }
    }
  }
}
MOTION
Frames: 20
Frame Time: 0.0416666666667
36.58626 103.8889 252.2348 2.114424 -7.630942 3.479595 1.016753 11.68315 6.240778 1.049539e-06 38.34529 -9.600181e-07 4.682676 -10.25377 -3.964077 -3.411627 -14.41138 -9.236092 3.804311e-07 20.42235 1.889393e-06 -7.386444 -10.27603 18.32086 -2.015028 0.08587358 7.11044 -0.8426984 9.100899 -3.063413 2.03301 22.19224 6.178613 2.043173 -17.29816 8.26026 1.749714 -20.367 10.97177 82.48094 23.02098 -9.050758 5.323419e-08 7.515257e-08 24.26724 -25.27344 12.87551 14.08976 3.720699 -13.41387 -3.089327 -95.16537 25.62418 26.59219 3.305839e-07 -5.202388e-07 -9.140782 -5.930632 5.324569 20.04377
37.96206 104.4229 258.2203 2.381513 -8.186592 3.936561 0.4847411 9.461283 6.231057 1.080936e-06 45.19113 -1.093629e-06 4.260709 -8.753423 -4.648414 -4.350071 -11.18208 -10.08788 2.834429e-07 21.38579 1.775038e-06 -6.878233 -10.82197 18.13197 -2.333933 0.03511696 6.572362 -0.9212952 9.156303 -3.316768 2.018104 22.54007 6.274381 1.982786 -17.0711 8.433236 2.024074 -19.57705 10.79707 83.10905 23.31099 -9.840348 5.700794e-08 7.450531e-08 22.87269 -24.65203 12.66862 13.47999 3.414776 -13.52786 -3.325529 -93.94233 26.31134 24.94171 2.158271e-07 -4.859832e-07 -9.294963 -5.615807 5.671345 19.68955
39.28946 105.2289 263.8899 2.690826 -8.731391 4.62767 -0.0001860327 6.197011 6.091159 1.073428e-06 51.04981 -1.176988e-06 3.839305 -8.080901 -5.532281 -5.168762 -7.212838 -10.84968 1.394593e-07 21.34629 1.665891e-06 -6.204099 -11.76989 17.87388 -2.674153 -0.005902771 5.929634 -0.924928 9.15142 -3.755238 1.986776 22.9456 6.318129 1.822454 -16.75514 8.612801 2.214985 -18.76969 10.59224 84.11137 23.61517 -10.98246 5.356495e-08 6.276918e-08 21.39815 -23.88862 12.55283 12.74946 3.184589 -13.89826 -3.629637 -92.41417 27.0492 22.66393 8.08441e-08 -4.141217e-07 -10.1393 -5.204367 6.165206 19.15485
40.54027 106.1702 269.2485 2.912882 -9.069031 5.482117 -0.2461466 2.014554 5.839144 9.696389e-07 54.63064 -1.148087e-06 3.284856 -8.168136 -6.509316 -5.727209 -2.622062 -11.48247 -2.775543e-08 20.73702 1.495302e-06 -5.543632 -12.88121 17.46912 -2.917238 -0.05418029 5.183735 -0.7869336 9.050352 -4.357021 1.955886 23.27012 6.282679 1.588409 -16.4641 8.76831 2.307212 -17.94191 10.34321 85.23463 23.91508 -12.41418 4.57763e-08 4.023096e-08 19.79371 -22.79021 12.50575 11.84877 3.065628 -14.47481 -3.918431 -90.59397 27.70745 19.94944 -5.778889e-08 -3.143695e-07 -11.52279 -4.656362 6.805143 18.39925
41.71873 107.0241 274.3443 3.079747 -9.107054 6.424951 -0.311814 -2.388763 5.407186 7.580187e-07 55.08104 -9.575801e-07 2.773671 -8.587223 -7.266594 -6.051572 1.64021 -11.97039 -1.700648e-07 19.07834 1.342263e-06 -4.909957 -14.26417 17.16771 -3.083717 -0.07293422 4.502217 -0.5750507 8.877906 -4.932019 1.935006 23.46949 6.251625 1.410981 -16.30573 8.889078 2.258334 -17.24453 10.12349 86.17913 24.0756 -13.81182 3.782554e-08 1.476814e-08 18.33276 -21.76855 12.39857 11.01179 3.201393 -15.18381 -4.172923 -88.80163 28.08692 17.18707 -1.656182e-07 -2.101598e-07 -13.29906 -4.011885 7.481727 17.45964
42.82886 107.5917 279.3148 3.142363 -8.838455 7.368061 -0.199892 -6.897302 4.805738 4.888272e-07 52.20584 -6.585335e-07 2.397968 -9.17242 -7.818966 -6.1308 5.55581 -12.25378 -2.852303e-07 16.76371 1.189658e-06 -4.55427 -15.83259 16.86297 -3.14459 -0.03574705 3.872906 -0.2891091 8.602685 -5.453154 1.940139 23.549 6.241476 1.305869 -16.28099 8.990489 2.074201 -16.60057 9.922352 86.99222 24.09502 -15.17941 3.186108e-08 -1.399642e-08 16.95178 -20.95011 12.28668 10.32096 3.612084 -15.97564 -4.355007 -87.14623 28.20919 14.37293 -2.377938e-07 -1.11618e-07 -15.43167 -3.351667 8.059707 16.45598
43.85724 107.739 284.2439 3.118236 -8.381787 8.239931 0.03551458 -11.31191 4.122592 2.397605e-07 46.72239 -3.434881e-07 2.067239 -9.81086 -8.203454 -6.045491 9.104389 -12.40843 -3.765814e-07 14.50051 1.00576e-06 -4.413151 -17.44129 16.63224 -3.132772 0.06252118 3.288281 0.0510766 8.255554 -5.901405 1.975205 23.55567 6.240915 1.278267 -16.35477 9.06129 1.816595 -15.93607 9.73857 87.60476 24.05982 -16.48808 2.63586e-08 -4.315023e-08 15.49236 -20.23703 12.12903 9.700553 4.227642 -16.80662 -4.458209 -85.569 28.14313 11.47592 -2.82771e-07 -1.500032e-08 -17.74012 -2.658461 8.576412 15.37195
44.81703 107.4414 289.3246 2.958647 -7.757374 8.994644 0.3520494 -15.315 3.320968 8.22933e-08 39.54815 -9.873853e-08 1.776266 -10.35109 -8.415482 -5.801192 12.16142 -12.32569 -4.407607e-07 12.84322 8.051706e-07 -4.798127 -18.8442 16.15488 -3.014588 0.2184191 2.739947 0.4191247 7.835433 -6.275089 2.023471 23.56382 6.275332 1.306244 -16.54644 9.135191 1.515486 -15.24362 9.562682 88.3234 24.04621 -17.74808 2.305734e-08 -7.412248e-08 13.99643 -19.79813 12.02464 9.306157 4.948695 -17.61749 -4.449971 -84.39994 27.99584 8.745824 -2.98762e-07 5.920633e-08 -20.08104 -2.036983 8.903118 14.41735
45.66082 106.6825 294.4297 2.853197 -7.25395 9.629649 0.598479 -18.78532 2.578608 -3.190574e-08 32.19569 9.919687e-08 1.288635 -11.13337 -8.568638 -5.579565 14.6688 -12.26705 -4.994644e-07 11.99067 5.733306e-07 -4.960308 -20.07017 15.96611 -2.95884 0.4169248 2.254193 0.7647818 7.439331 -6.581795 2.068684 23.63958 6.273004 1.355588 -16.683 9.144663 1.269684 -14.50856 9.406134 88.73544 24.20464 -18.83534 1.168783e-08 -1.003345e-07 12.31832 -19.22182 11.78358 8.810512 5.633569 -18.40816 -4.405341 -83.08216 27.84717 5.91279 -3.122334e-07 1.53529e-07 -22.26407 -1.318934 9.339534 13.30926
46.38502 105.6159 299.5734 2.702181 -6.844352 10.1411 0.8221594 -21.5157 1.895631 -9.731268e-08 25.99362 2.175539e-07 0.5485188 -11.8592 -8.681381 -5.352064 16.74201 -12.16949 -5.398346e-07 12.3693 3.172524e-07 -5.244484 -20.78721 15.62761 -2.869771 0.6030865 1.788984 1.076765 7.072209 -6.842816 2.098788 23.77669 6.238983 1.376913 -16.82005 9.133377 1.086937 -13.76832 9.233693 89.13392 24.50305 -19.76262 -1.338868e-09 -1.238802e-07 10.59168 -18.54406 11.50783 8.326527 6.12978 -19.06861 -4.305926 -81.93077 27.76454 3.425579 -3.249829e-07 2.355992e-07 -23.9839 -0.6034684 9.775335 12.2721
47.01143 104.4626 304.8064 2.482708 -6.581504 10.56512 1.070622 -23.30464 1.410735 -1.402658e-07 22.00945 2.535503e-07 -0.4136388 -12.44086 -8.847802 -5.100272 18.45279 -12.05637 -5.670333e-07 14.01687 3.574902e-08 -5.712893 -20.78973 15.03105 -2.712987 0.7208908 1.336357 1.346089 6.769474 -7.083535 2.115633 23.93645 6.143927 1.321287 -16.93694 9.111927 0.9859437 -13.10451 9.034791 89.603 24.88103 -20.49133 -1.309361e-08 -1.453482e-07 9.017436 -17.73711 11.29614 7.888213 6.317978 -19.49894 -4.166387 -81.08658 27.79566 1.639245 -3.465122e-07 2.952215e-07 -24.93577 -0.001921553 10.16038 11.48491
47.62146 103.5272 310.3168 2.181149 -6.529309 10.96882 1.367696 -23.97831 1.213474 -1.718742e-07 21.42471 2.035967e-07 -1.383792 -12.27507 -9.128756 -4.84809 20.02133 -11.96627 -5.738677e-07 16.95293 -2.619952e-07 -6.633327 -19.99591 14.07846 -2.448078 0.738489 0.8749894 1.545636 6.572792 -7.283807 2.15287 24.12888 6.024711 1.199027 -17.08822 9.15432 0.9637956 -12.58067 8.817322 90.51063 25.1279 -21.05469 -1.347961e-08 -1.649809e-07 7.804899 -17.0543 11.28042 7.669312 6.160344 -19.58485 -4.015351 -81.0416 28.01507 0.9899598 -3.854558e-07 3.03323e-07 -24.79463 0.2802515 10.34815 11.27041
48.24674 103.0227 316.0743 1.919706 -6.735568 11.35445 1.808927 -23.37284 1.456953 -1.950931e-07 23.0753 1.016361e-07 -2.361375 -11.66269 -9.417909 -4.621291 20.90808 -11.99022 -5.159613e-07 21.3639 -5.897605e-07 -7.450882 -18.52897 13.38598 -2.141837 0.6804527 0.5512245 1.671478 6.563674 -7.374145 2.220834 24.28369 5.847041 1.076591 -17.23508 9.168397 1.029214 -12.25842 8.658986 91.26116 25.25435 -21.31799 -7.264624e-09 -1.728874e-07 6.940363 -16.31533 11.28802 7.448874 5.743544 -19.38681 -3.889356 -81.46367 28.2757 1.366422 -4.302168e-07 2.80168e-07 -23.66689 0.3807171 10.50698 11.34807
48.87433 103.0506 321.9601 1.740006 -7.154519 11.64861 2.46046 -21.51402 2.097461 -1.847698e-07 25.09995 -4.084086e-08 -3.362105 -11.20971 -9.624936 -4.382689 20.63886 -12.05891 -3.310882e-07 27.52961 -9.646792e-07 -8.042393 -16.5563 13.20284 -1.806908 0.6264642 0.4649732 1.739538 6.711594 -7.307931 2.325582 24.43637 5.604435 0.9921772 -17.37679 9.117875 1.149859 -12.11868 8.602702 91.65903 25.32488 -21.28391 -4.652496e-10 -1.657763e-07 6.341023 -15.46814 11.21651 7.11938 5.206451 -19.01862 -3.759446 -82.25038 28.55417 2.481062 -4.602185e-07 2.393999e-07 -21.95237 0.3946913 10.72212 11.53051
49.50833 103.5993 327.883 1.733677 -7.761488 11.79543 3.098083 -18.09351 2.86273 -1.093281e-07 26.92442 -2.199853e-07 -4.174712 -11.08451 -9.586849 -4.189392 18.53755 -12.02225 7.151555e-09 34.71853 -1.312866e-06 -8.486912 -14.40423 13.63728 -1.525799 0.6648605 0.7289039 1.682385 6.990568 -6.991734 2.454112 24.72626 5.386191 1.004527 -17.53112 9.03839 1.280986 -12.24618 8.701 91.87207 25.35713 -20.84308 5.086378e-09 -1.42782e-07 6.212375 -15.00468 11.06845 6.941721 4.683785 -18.53481 -3.617768 -83.76296 28.89647 4.336661 -4.54516e-07 1.774322e-07 -19.92144 0.2456421 10.90308 11.90538
50.01494 104.4061 333.3277 2.119827 -8.658681 11.72896 3.488073 -13.92667 3.724636 -4.51695e-08 27.56729 -3.326294e-07 -4.905526 -11.92399 -9.411667 -4.170313 14.88407 -12.16481 4.071618e-07 41.02361 -1.612351e-06 -7.750449 -12.84415 15.3979 -1.538475 0.8160925 1.337231 1.501227 7.4103 -6.467248 2.590586 25.06456 5.118919 1.112149 -17.46451 8.808603 1.395633 -12.60219 8.952542 90.98803 25.39797 -19.87045 -4.957097e-09 -1.008367e-07 6.33527 -14.50703 10.51927 6.516124 4.318323 -18.12689 -3.587338 -84.71879 29.05039 5.89894 -4.340177e-07 1.761786e-07 -18.03952 0.3059013 11.42835 11.78237
50.47283 105.4443 338.5746 2.322156 -9.283923 11.38517 3.788462 -9.205174 4.281633 4.976525e-08 27.12484 -4.449241e-07 -5.368997 -12.46537 -8.9464 -4.02313 10.59927 -12.05881 8.32559e-07 46.26033 -1.877697e-06 -7.635934 -11.2844 16.84756 -1.485469 0.9878309 2.000133 1.312454 7.739002 -5.856442 2.718347 25.40234 4.962477 1.285616 -17.5905 8.644091 1.442616 -13.12397 9.217997 90.42492 25.43802 -18.71941 -8.320336e-09 -6.578186e-08 6.859567 -14.65105 10.16041 6.622698 4.097319 -17.64913 -3.436148 -86.539 29.17702 8.081137 -3.823247e-07 1.372295e-07 -16.07814 0.131404 11.65858 12.03902
50.87206 106.4836 343.5103 2.544778 -9.739795 10.80101 3.823698 -4.326299 4.596523 1.112251e-07 25.79364 -4.831647e-07 -5.789532 -13.15901 -8.208436 -3.900498 5.722365 -12.01139 1.112937e-06 48.87078 -1.967007e-06 -7.060259 -10.20379 18.61958 -1.592916 1.145697 2.740379 1.096595 8.039363 -5.193772 2.793484 25.65947 4.853699 1.516145 -17.73434 8.424785 1.451431 -13.8606 9.502378 89.31835 25.6152 -17.16875 -1.76418e-08 -3.284261e-08 7.684442 -14.98651 9.66992 6.911983 4.028426 -17.21904 -3.271156 -88.1568 29.10907 10.28811 -3.216138e-07 1.258565e-07 -14.17198 0.08235718 11.98195 12.07218
51.25784 107.2281 348.1513 2.677146 -9.879398 10.02256 3.594971 -0.035882 4.561547 1.327034e-07 23.49383 -4.242808e-07 -6.035346 -14.09494 -7.299195 -3.729814 1.034894 -12.04868 1.016543e-06 46.75828 -1.646514e-06 -6.185996 -9.933738 20.36793 -1.804883 1.251677 3.400675 0.8888719 8.152084 -4.558016 2.822947 25.75879 4.791177 1.710894 -17.88279 8.231739 1.286977 -14.83756 9.691403 87.85192 25.67761 -15.2318 -2.833583e-08 -1.648241e-08 9.041886 -15.54414 9.138295 7.490594 4.178207 -16.80306 -3.079565 -89.5097 28.85381 12.40566 -2.629625e-07 1.361128e-07 -12.43183 0.08637479 12.33213 11.97388
51.74218 107.5458 352.7539 2.568451 -9.611775 9.121231 3.289016 3.775096 4.18786 1.578274e-07 20.94256 -3.340291e-07 -6.124339 -14.96563 -6.232352 -3.403782 -3.2395 -12.0055 7.146099e-07 41.01224 -1.072138e-06 -5.594594 -10.04532 21.54102 -1.94681 1.267119 3.922355 0.7174155 8.059711 -3.992093 2.807503 25.71046 4.790789 1.827463 -18.15304 8.132929 0.951661 -16.04 9.751881 86.59856 25.58003 -13.10279 -3.175541e-08 -2.075711e-08 10.98834 -16.39085 8.754632 8.488293 4.422403 -16.32351 -2.808201 -91.15628 28.46856 14.90316 -1.978483e-07 1.245968e-07 -10.67935 -0.02258199 12.52744 12.07829
